<?xml version="1.0" encoding="utf-8"?>
<!-- Svg Vector Icons : http://www.onlinewebfonts.com/icon -->
<!DOCTYPE svg PUBLIC "-//W3C//DTD SVG 1.1//EN" "http://www.w3.org/Graphics/SVG/1.1/DTD/svg11.dtd">
<svg version="1.1" xmlns="http://www.w3.org/2000/svg" xmlns:xlink="http://www.w3.org/1999/xlink" x="0px" y="0px" viewBox="0 0 1000 1000" enable-background="new 0 0 1000 1000" xml:space="preserve">
<metadata> Svg Vector Icons : http://www.onlinewebfonts.com/icon </metadata>
<g><path d="M10,493.1c0-15,5.7-30.1,17.2-41.6L458.4,20.3c22.9-22.9,60.2-22.9,83.1,0l431.3,431.2c22.9,22.9,22.9,60.2,0,83.1c-22.9,22.9-60.2,22.9-83.1,0L500,145L110.5,534.7c-22.9,22.9-60.2,22.9-83.1,0C15.7,523.2,10,508.1,10,493.1L10,493.1L10,493.1L10,493.1z M10,938.1c0-15,5.7-30.1,17.2-41.6l431.2-431.2c22.9-22.9,60.2-22.9,83.1,0l431.2,431.2c22.9,22.9,22.9,60.2,0,83.1c-22.9,22.9-60.2,22.9-83.1,0L500,590L110.5,979.7c-22.9,22.9-60.2,22.9-83.1,0C15.7,968.3,10,953.3,10,938.1L10,938.1L10,938.1L10,938.1z"/></g>
</svg>